<?xml version="1.0" encoding="UTF-8" standalone="no"?>
<!DOCTYPE svg PUBLIC "-//W3C//DTD SVG 1.1//EN" "http://www.w3.org/Graphics/SVG/1.1/DTD/svg11.dtd">
<svg version="1.1" xmlns="http://www.w3.org/2000/svg" xmlns:xlink="http://www.w3.org/1999/xlink" preserveAspectRatio="xMidYMid meet" viewBox="0 0 640 640" width="640" height="640"><defs><path d="M560.33 338.13C564.91 335.22 562 237.51 560.33 233.26C551.46 228.6 541.97 225.21 532.15 223.2C530.48 187.18 525.24 151.42 516.5 116.44C503.2 69.7 455.24 31.25 406.05 18.05C350.75 2.05 292.22 0.89 236.34 14.7C177.53 31.02 146.9 50.92 117.27 99.11C87.65 147.29 87.42 231.7 87.42 231.7C79.47 233.16 71.7 235.52 64.28 238.74C61.04 241.65 65.29 319.8 67.64 337.91C69.98 356.02 78.82 354.45 78.82 354.45C78.82 354.45 1.12 546.52 4.58 554.35C8.05 562.17 106.88 621.43 298.83 623.1C490.79 624.78 632.44 565.08 635.46 553.34C638.47 541.6 550.6 340.7 550.6 340.7C554.02 340.79 557.4 339.9 560.33 338.13ZM451.55 64.9C493.47 101.57 496.94 127.62 494.14 128.17C491.35 128.73 465.97 116.99 464.63 119.57C463.29 122.14 462.95 128.51 465.3 129.85C467.65 131.19 495.37 142.15 496.83 143.94C498.3 147.52 499.32 151.28 499.84 155.12C489.09 149.82 477.86 145.55 466.31 142.37C464.96 144.27 463.73 152.66 466.31 153.55C468.88 154.45 499.84 168.09 499.84 168.09C499.96 168.97 500.85 176.04 500.96 176.92C500.96 176.92 469.44 163.73 467.42 164.17C467.42 164.17 463.4 173.12 465.86 174.46C465.86 174.46 501.19 188.55 502.08 190.33C502.08 190.33 506.66 205.65 506.66 205.65C504.77 205 489.66 199.81 487.77 199.17C487.77 199.17 491.24 208.89 493.14 209.79C493.14 209.79 507.67 214.59 507.78 218.28C509.19 230.65 509.97 243.07 510.13 255.51C508.68 255.51 485.53 183.4 451.77 176.36C418.01 169.32 351.15 196.04 351.15 196.04C343.75 161.59 338.52 126.72 335.5 91.62C333.83 51.03 330.02 28.34 335.06 26.33C340.09 24.31 409.62 28.23 451.55 64.9ZM319.29 27.22C320.07 29.01 331.25 157.58 333.6 175.02C335.79 183.94 336.81 193.11 336.62 202.3C325.94 211.27 310.66 212.22 298.94 204.64C298.94 204.64 304.98 163.5 305.09 149.98C305.21 136.45 296.04 28.67 298.27 27.22C305.18 25.55 312.39 25.55 319.29 27.22ZM211.63 43.21C234.82 33.94 259.36 28.51 284.3 27.11C284.3 29.01 291.79 141.59 291.68 156.91C290.68 171.95 288.55 186.9 285.31 201.63C285.31 201.63 240.59 174.24 194.08 186.2C153.33 196.65 121.34 228.21 110.34 268.82C110.34 268.82 103.63 182.96 124.88 135.22C144.1 96.67 174.28 64.66 211.63 43.21ZM532.71 484.59C528.35 483.24 527.79 491.18 527.79 491.18C527.79 491.18 585.71 552.67 584.36 554.12C580.24 556.55 575.94 558.68 571.51 560.5C571.51 560.5 523.1 504.6 521.2 505.38C521.2 505.38 513.48 512.09 516.73 514.32C532.93 529.57 548.13 545.86 562.23 563.07C557.91 564.99 553.42 566.49 548.81 567.54C536.3 553.15 523.01 539.46 509.01 526.51C506.22 526.51 502.08 530.87 503.53 532.66C504.99 534.45 540.76 569.44 539.42 571.34C535.34 573.35 530.96 574.71 526.45 575.36C526.45 575.36 498.73 546.19 496.83 546.3C496.83 546.3 488.55 549.76 490.9 553.01C490.9 553.01 517.62 577.49 516.17 578.5C512.53 579.62 508.78 580.33 504.99 580.62C503.65 580.62 482.63 558.26 480.17 558.26C477.71 558.26 471.34 560.38 472.79 563.51C474.24 566.64 493.36 583.53 491.01 584.98C488.66 586.43 433.21 603.65 314.82 601.86C196.43 600.07 148.91 581.18 148.91 581.18C134.02 566.5 118.27 552.72 101.73 539.93C97.49 539.93 93.01 546.63 94.91 547.97C106.2 556.95 116.88 566.66 126.89 577.04C124.99 577.04 90.33 566.76 78.59 564.74C69.83 563.79 61.27 561.49 53.21 557.92C53.21 556.58 120.29 396.49 123.31 396.82C126.33 397.16 171.72 509.74 171.72 509.74C169.1 522.25 174.43 535.08 185.13 542.05C197.85 547.31 212.31 546.28 224.15 539.25C241.49 539.34 380.21 540.06 397.55 540.15C399 540.15 427.29 554.35 438.8 532.66C450.32 510.97 443.61 502.7 443.61 502.7C443.61 502.7 488.33 376.7 485.65 374.02C479.39 371.62 472.78 370.26 466.08 369.99C466.08 369.99 435.34 485.37 432.54 485.48C429.75 485.59 418.46 481.79 413.76 481.79C411.12 481.5 408.46 481.5 405.82 481.79C399.71 473.26 350.78 405.02 344.67 396.49C344.67 396.49 356.97 329.41 308.11 329.41C308.11 329.41 272.9 396.49 272.9 396.49C272.9 396.49 261.72 395.82 250.54 413.37C250.54 413.37 212.64 483.69 212.64 483.69C207.14 483.34 201.63 484.1 196.43 485.93C189.05 488.95 184.46 491.29 184.46 491.29C184.46 491.29 144.89 398.61 145.78 396.71C146.68 394.81 154.95 372.68 159.2 372.68C163.45 372.68 191.95 377.04 203.13 377.15C214.31 377.26 216.1 375.92 216.55 374.02C217 372.12 219.57 365.07 217.78 365.19C215.99 365.3 160.32 359.15 156.07 358.25C151.82 357.36 144.1 382.74 140.42 383.86C136.73 384.97 125.55 386.54 126.89 383.86C128.23 381.17 151.15 326.39 152.49 326.84C153.83 327.29 236.67 338.8 261.27 333.99C285.86 329.19 292.24 321.58 295.59 309.85C299.07 285.45 300.05 260.76 298.5 236.17C276.38 227.44 252.94 222.49 229.18 221.53C197.99 220.41 176.97 219.96 163.56 241.76C150.14 263.56 43.71 551.55 41.81 552.11C38.24 551.53 34.78 550.43 31.52 548.87C31.52 548.87 86.42 392.35 107.32 333.66C107.32 333.66 146.12 204.09 213.2 205.2C237.9 205.2 293.58 232.59 322.31 225.89C351.04 219.18 399.34 194.69 428.74 194.36C458.14 194.02 474.13 222.08 499.84 282.12C525.56 342.16 579.56 475.87 578.1 475.87C576.65 475.87 487.1 276.08 469.66 249.92C452.22 223.76 439.92 216.38 404.15 218.95C368.37 221.53 328.01 230.13 327.68 234.83C327.34 239.53 327.68 314.99 333.04 321.36C338.41 327.73 367.25 329.41 402.13 327.17C437.01 324.94 458.03 323.49 466.75 320.02C473.35 316.89 479.64 313.15 485.53 308.84C494.28 327.25 564.22 474.56 572.96 492.97C562.64 482.75 551.66 473.23 540.09 464.46C537.74 464.46 536.63 473.41 537.97 474.3C539.31 475.19 579 511.53 582.69 515.67C589.9 524.67 595.95 534.55 600.69 545.07C599.01 546.41 595.32 550.66 592.97 549.76C590.62 548.87 537.07 485.93 532.71 484.59ZM341.99 513.99C341.99 510.19 339.86 427.34 342.66 426.79C345.45 426.23 351.04 443.78 351.04 443.78C351.04 443.78 349.59 515.55 351.04 516C352.5 516.45 360.88 519.02 360.43 516.67C359.99 514.32 360.99 463.57 360.99 463.57C362.06 465.25 367.39 473.67 376.98 488.83C371.68 489.24 368.74 489.46 368.15 489.5C368.15 489.5 367.25 511.86 370.05 511.86C372.69 512.06 375.34 512.06 377.99 511.86C379.33 511.86 379.22 524.83 379.22 524.83C379.22 524.83 298.05 522.6 269.65 523.27C241.26 523.94 238.91 524.5 238.91 524.5C237.98 516.96 235.9 509.61 232.76 502.7C232.08 501.27 226.62 489.82 225.94 488.39C225.94 488.39 279.38 407.89 283.63 406.33C292 406.98 300.41 406.98 308.78 406.33C311.34 406.22 331.82 405.32 334.38 405.21C334.38 405.21 330.25 513.76 334.5 514.66C338.74 515.44 341.99 517.79 341.99 513.99ZM305.54 513.54C305.54 515.44 312.58 516.11 315.38 513.54C318.17 510.97 314.04 418.96 313.48 417.17C312.92 415.38 307.22 414.71 304.09 416.17C302.75 416.17 305.54 511.64 305.54 513.54ZM286.98 514.44C286.98 514.44 294.92 514.44 296.71 514.44C296.71 514.44 293.47 419.41 292.46 417.62C291.45 415.83 285.98 416.61 283.63 417.62C283.63 417.62 286.87 512.65 286.98 514.44ZM267.42 513.99C270.38 514.19 273.35 513.97 276.25 513.32C278.04 512.31 273.9 456.52 273.9 454.62C273.9 452.72 264.18 455.63 264.18 457.19C263.28 459.54 266.77 502.63 267.42 513.99ZM246.06 513.99C249.05 513.75 252.01 513.23 254.9 512.42C255.58 499.5 254.64 486.54 252.1 473.85C250.98 472.4 244.95 477.65 244.61 479.55C244.72 481.9 245.77 507.1 246.06 513.99ZM474.35 349.98C454.34 352.33 425.39 353 423.15 354.01C419.02 356.02 424.38 366.08 424.38 366.08C424.38 366.08 433.66 366.08 449.98 366.08C466.54 365.71 483 363.27 498.95 358.81C499.73 357.81 496.71 348.53 494.37 347.63C487.64 347.81 480.94 348.59 474.35 349.98ZM426.39 391.23C431.3 397.87 436.89 403.97 443.05 409.46C445.4 411.25 447.52 402.3 447.52 402.3C447.52 402.3 435.34 384.53 431.87 385.53C429.97 385.53 425.95 388.89 426.39 391.23ZM409.07 405.21C417.45 413.82 426.53 421.71 436.23 428.8C437.69 428.8 438.47 424.55 439.36 422.2C440.26 419.85 417.34 398.84 414.1 399.95C413.2 399.95 408.51 402.86 409.07 405.21ZM395.54 420.86C394.2 423.21 426.95 449.93 426.95 449.93C428.67 447.61 430.03 445.05 430.98 442.33C431.87 439.08 402.92 416.5 402.92 416.5C401.57 417.95 396.88 418.51 395.54 420.86ZM154.95 527.85C154.84 523.16 125.66 498.22 123.42 497.44C121.19 496.66 118.95 506.39 119.51 508.62C129.83 518.15 140.81 526.93 152.38 534.89C153.72 534.89 155.06 532.55 154.95 527.85ZM109.78 532.1C124.13 544.63 139.38 556.1 155.4 566.42C156.85 566.42 158.08 561.28 157.97 558.93C157.86 556.58 115.15 520.92 115.15 520.92C114.08 523.16 109.34 528.97 109.78 532.1ZM167.69 117.11C174.6 103.79 185.14 92.7 198.1 85.13C199.89 82.78 196.54 77.2 191.4 75.97C186.25 74.74 174.4 84.8 161.77 102.8C149.14 120.8 142.32 143.83 144.22 146.4C148.27 149.8 153.46 151.56 158.75 151.32C161.55 150.31 158.75 137.79 167.69 117.11ZM480.39 118.56C484.64 119.34 482.63 112.97 481.62 110.18C480.62 107.38 466.98 103.47 463.73 104.14C460.49 104.81 462.5 112.19 464.4 112.86C469.59 115.15 474.93 117.06 480.39 118.56Z" id="b7f6jlqx1U"></path></defs><g><g><g><use xlink:href="#b7f6jlqx1U" opacity="1" fill="#ffffff" fill-opacity="1"></use><g><use xlink:href="#b7f6jlqx1U" opacity="1" fill-opacity="0" stroke="#000000" stroke-width="1" stroke-opacity="0"></use></g></g></g></g></svg>